<svg width="40" height="40" viewBox="0 0 40 40" fill="none" xmlns="http://www.w3.org/2000/svg">
<path fill-rule="evenodd" clip-rule="evenodd" d="M1.08341 0.220596C0.602008 0.460541 0.211633 0.918329 0.0671696 1.41198C0.0107348 1.60497 -0.011189 2.82488 0.00539964 4.84552L0.0310746 7.97981L0.283322 8.3879C0.667779 9.00965 1.18545 9.29321 2.00437 9.33049L2.65692 9.36018V10.0097V10.6592L2.00437 10.6889C1.18536 10.7262 0.667695 11.0098 0.283322 11.6317L0.0310746 12.0399V15.3474V18.6548L0.283322 19.0631C0.667695 19.685 1.18536 19.9685 2.00437 20.0058L2.65692 20.0355V20.685V21.3346L2.00437 21.3643C1.18536 21.4015 0.667695 21.6851 0.283322 22.307L0.0310746 22.7153V26.0227V29.3302L0.283322 29.7384C0.439706 29.9914 0.690786 30.2426 0.943617 30.3991L1.35166 30.6515L8.00622 30.6738L14.6608 30.6961L14.6626 33.5512C14.6647 36.8159 14.659 36.7849 15.3779 37.4523C16.6101 38.5959 19.018 39.3504 22.9968 39.8394C24.7274 40.0521 29.9258 40.0539 31.6662 39.8424C35.6089 39.3632 38.0521 38.5968 39.2851 37.4523C40.0655 36.7277 39.9986 37.8005 39.9986 26.0227C39.9986 16.1347 39.9913 15.6234 39.8459 15.3057C39.6685 14.9179 39.0422 14.3082 38.4873 13.9828C36.7479 12.9629 33.1594 12.2101 29.2379 12.0424L27.9335 11.9866L27.6487 11.563C27.2465 10.965 26.6795 10.6769 25.9049 10.6769H25.3309V10.0186V9.36018L25.9834 9.33049C26.8024 9.29321 27.3201 9.00965 27.7045 8.38773L27.9567 7.97948V4.67204V1.36461L27.7045 0.95636C27.5481 0.703321 27.297 0.452117 27.0441 0.295657L26.636 0.0432852L14.0809 0.0216009L1.5258 0L1.08341 0.220596ZM26.421 1.57978L26.6646 1.82356V4.67204V7.52052L26.421 7.76431L26.1773 8.00809H13.9939H1.81048L1.56682 7.76431L1.32316 7.52052V4.67204V1.82356L1.56682 1.57978L1.81048 1.336H13.9939H26.1773L26.421 1.57978ZM2.86157 2.87517C2.65858 3.07817 2.65692 3.09276 2.65692 4.67204C2.65692 6.81579 2.51487 6.67367 4.65756 6.67367C6.80025 6.67367 6.6582 6.81579 6.6582 4.67204C6.6582 2.5283 6.80025 2.67042 4.65756 2.67042C3.07905 2.67042 3.06446 2.67209 2.86157 2.87517ZM8.19661 2.87517C7.99363 3.07817 7.99196 3.09276 7.99196 4.67204C7.99196 6.81579 7.84992 6.67367 9.9926 6.67367C12.1353 6.67367 11.9932 6.81579 11.9932 4.67204C11.9932 2.5283 12.1353 2.67042 9.9926 2.67042C8.4141 2.67042 8.39951 2.67209 8.19661 2.87517ZM13.327 3.33763V4.00484H17.9952H22.6633V3.33763V2.67042H17.9952H13.327V3.33763ZM23.9971 3.33763V4.00484H24.664H25.3309V3.33763V2.67042H24.664H23.9971V3.33763ZM5.32444 4.67204V5.33925H4.65756H3.99068V4.67204V4.00484H4.65756H5.32444V4.67204ZM10.6595 4.67204V5.33925H9.9926H9.32572V4.67204V4.00484H9.9926H10.6595V4.67204ZM13.327 6.00646V6.67367H17.9952H22.6633V6.00646V5.33925H17.9952H13.327V6.00646ZM23.9971 6.00646V6.67367H24.664H25.3309V6.00646V5.33925H24.664H23.9971V6.00646ZM6.6582 10.0097V10.6769H5.32444H3.99068V10.0097V9.3425H5.32444H6.6582V10.0097ZM19.9958 10.0097V10.6769H13.9939H7.99196V10.0097V9.3425H13.9939H19.9958V10.0097ZM23.9971 10.0097V10.6769H22.6633H21.3296V10.0097V9.3425H22.6633H23.9971V10.0097ZM24.1221 12.1055C21.6022 12.3003 18.8482 12.8468 17.3076 13.4576C16.383 13.8241 15.8942 14.1114 15.3792 14.5909C14.7156 15.2087 14.6648 15.3912 14.6626 17.1614L14.6608 18.6834H8.23562H1.81048L1.56682 18.4396L1.32316 18.1959V15.3474V12.4989L1.56682 12.2551L1.81048 12.0113L13.4248 12.023C20.5632 12.0302 24.6857 12.062 24.1221 12.1055ZM2.86157 13.5505C2.65858 13.7535 2.65692 13.7681 2.65692 15.3474C2.65692 17.4911 2.51487 17.349 4.65756 17.349C6.80025 17.349 6.6582 17.4911 6.6582 15.3474C6.6582 13.2036 6.80025 13.3458 4.65756 13.3458C3.07905 13.3458 3.06446 13.3474 2.86157 13.5505ZM8.19661 13.5505C7.99363 13.7535 7.99196 13.7681 7.99196 15.3474C7.99196 17.4911 7.84992 17.349 9.9926 17.349C11.5711 17.349 11.5857 17.3473 11.7886 17.1443C11.9916 16.9413 11.9932 16.9267 11.9932 15.3474C11.9932 13.2036 12.1353 13.3458 9.9926 13.3458C8.4141 13.3458 8.39951 13.3474 8.19661 13.5505ZM30.7911 13.5128C33.709 13.7781 36.3131 14.3813 37.6747 15.1074C38.1409 15.356 38.6685 15.8376 38.6685 16.0146C38.6685 16.1916 38.1409 16.6732 37.6747 16.9218C34.9043 18.3991 28.1158 19.064 22.6804 18.3904C19.3525 17.9779 16.6851 17.0983 16.113 16.2248C15.9867 16.0319 15.9863 15.9979 16.1082 15.8117C16.8762 14.6391 20.6674 13.6721 25.5809 13.3957C26.4497 13.3468 29.7918 13.422 30.7911 13.5128ZM5.32444 15.3474V16.0146H4.65756H3.99068V15.3474V14.6802H4.65756H5.32444V15.3474ZM10.6595 15.3474V16.0146H9.9926H9.32572V15.3474V14.6802H9.9926H10.6595V15.3474ZM18.2184 18.8761C20.5843 19.6256 23.7148 20.0178 27.3315 20.0178C31.8666 20.0178 35.804 19.3686 38.0224 18.2552L38.6685 17.931V20.3476V22.7642L38.4213 23.0459C38.0835 23.4309 37.3612 23.7991 36.1878 24.1846C31.7683 25.6366 23.769 25.7137 19.0149 24.3501C17.5133 23.9194 16.6105 23.4896 16.2117 23.0155L15.9945 22.7573V20.3441V17.931L16.6406 18.2559C16.9958 18.4346 17.7059 18.7138 18.2184 18.8761ZM6.6582 20.685V21.3523H5.32444H3.99068V20.685V20.0178H5.32444H6.6582V20.685ZM14.6608 20.685V21.3523H11.3264H7.99196V20.685V20.0178H11.3264H14.6608V20.685ZM26.6646 22.6867V23.3539H27.3315H27.9984V22.6867V22.0195H27.3315H26.6646V22.6867ZM14.6608 26.0227V29.3588H8.23562H1.81048L1.56682 29.115L1.32316 28.8712V26.0227V23.1742L1.56682 22.9305L1.81048 22.6867H8.23562H14.6608V26.0227ZM2.86157 24.2258C2.65858 24.4288 2.65692 24.4434 2.65692 26.0227C2.65692 28.1665 2.51487 28.0243 4.65756 28.0243C6.80025 28.0243 6.6582 28.1665 6.6582 26.0227C6.6582 23.879 6.80025 24.0211 4.65756 24.0211C3.07905 24.0211 3.06446 24.0228 2.86157 24.2258ZM8.19661 24.2258C7.99363 24.4288 7.99196 24.4434 7.99196 26.0227C7.99196 28.1665 7.84992 28.0243 9.9926 28.0243C11.5711 28.0243 11.5857 28.0227 11.7886 27.8196C11.9916 27.6166 11.9932 27.602 11.9932 26.0227C11.9932 23.879 12.1353 24.0211 9.9926 24.0211C8.4141 24.0211 8.39951 24.0228 8.19661 24.2258ZM18.1631 25.5261C20.4567 26.2796 23.6892 26.6899 27.3315 26.6899C31.8754 26.6899 35.7997 26.0429 38.0224 24.9273L38.6685 24.6031V27.0197V29.4363L38.4213 29.718C38.0835 30.103 37.3612 30.4712 36.1878 30.8567C31.7683 32.3087 23.769 32.3858 19.0149 31.0222C17.5133 30.5915 16.6105 30.1617 16.2117 29.6876L15.9945 29.4294V27.0161V24.6028L16.5958 24.9057C16.9265 25.0724 17.6318 25.3515 18.1631 25.5261ZM5.32444 26.0227V26.6899H4.65756H3.99068V26.0227V25.3555H4.65756H5.32444V26.0227ZM10.6595 26.0227V26.6899H9.9926H9.32572V26.0227V25.3555H9.9926H10.6595V26.0227ZM26.6646 30.026V30.6932H27.3315H27.9984V30.026V29.3588H27.3315H26.6646V30.026ZM18.1631 32.1982C20.4567 32.9517 23.6892 33.362 27.3315 33.362C31.8754 33.362 35.7997 32.715 38.0224 31.5994L38.6685 31.2751V33.6918V36.1084L38.4213 36.3901C38.0835 36.7751 37.3612 37.1432 36.1878 37.5288C31.7618 38.9829 23.7814 39.0596 19.0149 37.694C17.5143 37.2641 16.6106 36.8339 16.2117 36.3597L15.9945 36.1015V33.6882V31.2749L16.5958 31.5778C16.9265 31.7444 17.6318 32.0236 18.1631 32.1982ZM26.6646 36.0308V36.6981H27.3315H27.9984V36.0308V35.3636H27.3315H26.6646V36.0308Z" fill="#3F8DC7"/>
</svg>
